# xmcd
#
# Track frame offsets:
#	150
#	14602
#	28649
#
# Disc length: 603 seconds
#
# Revision: 0
# Processed by: cddbd v1.5.2PL0 Copyright (c) Steve Scherf et al.
# Submitted via: audiograbber 1.83.01
#
DISCID=1c025903
DTITLE=Tomislav Goluban and Little Pigeon's ForHill Blues - Brzi vlak - maxi sing
DTITLE=le
DYEAR=2008
DGENRE=Blues
TTITLE0=Brzi vlak - feat. I.Kostelic
TTITLE1=Isel budem Zveglica - feat. M.Evacic
TTITLE2=Jambalaya
EXTD=
EXTT0=
EXTT1=
EXTT2=
PLAYORDER=
